<?xml version="1.0" standalone="no"?>
<!DOCTYPE svg PUBLIC "-//W3C//DTD SVG 20010904//EN"
 "http://www.w3.org/TR/2001/REC-SVG-20010904/DTD/svg10.dtd">
<svg version="1.0" xmlns="http://www.w3.org/2000/svg"
 width="512.000000pt" height="317.000000pt" viewBox="0 0 512.000000 317.000000"
 preserveAspectRatio="xMidYMid meet">

<g transform="translate(0.000000,317.000000) scale(0.100000,-0.100000)"
fill="#FFD787" stroke="none">
<path d="M123 2999 c-48 -14 -99 -68 -113 -118 -8 -29 -10 -144 -8 -369 3
-378 -2 -356 107 -462 74 -71 107 -130 120 -212 19 -116 -20 -220 -117 -312
-110 -106 -107 -90 -110 -463 -3 -345 0 -380 44 -433 55 -65 -135 -60 2312
-60 l2229 0 34 23 c18 12 44 38 56 56 23 34 23 36 23 385 0 403 0 401 -89 476
-179 151 -184 390 -11 541 103 89 101 82 101 484 l1 346 -26 43 c-16 27 -40
51 -63 62 -37 18 -107 19 -2248 21 -1335 1 -2223 -2 -2242 -8z m3614 -151 c22
-21 23 -26 23 -202 -1 -195 -3 -206 -54 -226 -21 -7 -35 -7 -54 2 -47 23 -53
48 -50 236 3 169 4 174 27 193 31 25 79 24 108 -3z m-265 -205 c24 -22 24 -77
-2 -103 -20 -20 -33 -20 -1535 -20 -1502 0 -1515 0 -1535 20 -24 24 -26 77 -3
102 15 17 76 18 1536 18 1401 0 1522 -1 1539 -17z m263 -398 c25 -24 25 -26
25 -203 0 -200 -5 -216 -66 -228 -24 -5 -37 0 -60 19 l-29 25 -3 163 c-2 89
-1 173 3 186 15 62 86 83 130 38z m-2919 -166 c57 -27 86 -75 82 -131 -3 -43
-3 -43 -43 -43 -38 0 -41 2 -54 44 -11 34 -21 46 -49 58 -46 19 -95 10 -122
-24 -18 -24 -20 -40 -20 -200 0 -171 0 -174 25 -198 19 -20 34 -25 75 -25 56
0 90 23 90 63 0 39 22 59 60 55 34 -3 35 -5 38 -48 6 -88 -61 -149 -173 -158
-83 -6 -145 16 -183 66 -27 35 -27 36 -30 221 -2 102 -1 200 3 218 7 40 49 91
90 109 48 21 161 18 211 -7z m480 -5 c71 -53 84 -96 84 -289 0 -206 -15 -249
-101 -293 -59 -31 -167 -27 -224 8 -65 40 -75 77 -75 288 0 225 8 250 95 297
45 24 184 17 221 -11z m274 -214 c5 -243 9 -268 50 -290 24 -13 96 -13 119 0
10 5 23 17 27 27 5 10 11 126 14 258 l5 240 45 0 45 0 3 -220 c4 -265 0 -295
-39 -340 -78 -88 -263 -86 -330 5 -30 40 -39 119 -39 334 0 223 2 229 60 224
l35 -3 5 -235z m749 211 c70 -50 93 -174 49 -261 -32 -64 -83 -89 -192 -97
l-86 -6 0 -98 c0 -86 -3 -102 -20 -119 -23 -23 -33 -24 -61 -10 -18 10 -19 24
-19 309 0 164 3 301 7 305 4 4 71 6 148 4 129 -3 143 -5 174 -27z m465 -5 c60
-46 66 -70 66 -283 0 -176 -2 -191 -23 -227 -61 -107 -266 -117 -339 -16 -28
38 -41 149 -36 300 5 143 14 174 60 217 37 35 68 43 154 40 71 -2 85 -5 118
-31z m272 13 c10 -11 60 -100 111 -197 l92 -177 1 186 c0 206 2 213 62 207
l33 -3 3 -303 2 -302 -25 -12 c-43 -19 -69 13 -178 216 l-102 189 -3 -194 c-2
-168 -4 -196 -19 -206 -24 -18 -40 -16 -63 7 -19 19 -20 33 -20 303 0 207 3
286 12 295 19 19 73 14 94 -9z m679 -434 c25 -24 25 -26 25 -205 0 -179 0
-181 -25 -205 -31 -32 -66 -32 -102 -1 l-28 24 0 182 0 182 28 24 c36 31 71
31 102 -1z m-25 -585 c5 0 18 -10 30 -22 18 -20 20 -35 20 -155 0 -129 -1
-135 -25 -158 -31 -32 -66 -32 -102 -1 -28 24 -28 26 -31 148 -2 86 1 130 10
148 15 28 56 52 76 45 8 -3 18 -5 22 -5z m-240 -30 c26 -26 25 -68 -2 -97
l-21 -23 -1512 0 c-1507 0 -1511 0 -1533 20 -28 26 -29 73 -2 100 20 20 33 20
1535 20 1502 0 1515 0 1535 -20z"/>
<path d="M1134 2010 c-49 -19 -54 -42 -54 -228 0 -170 0 -173 25 -197 35 -36
112 -35 146 1 23 25 24 30 24 193 0 186 -7 213 -58 231 -35 12 -54 12 -83 0z"/>
<path d="M2090 1905 l0 -115 55 0 c103 0 145 34 145 115 0 81 -42 115 -145
115 l-55 0 0 -115z"/>
<path d="M2609 2009 c-47 -18 -54 -47 -54 -230 0 -163 1 -168 24 -193 34 -36
111 -37 146 -1 25 24 25 27 25 199 0 167 -1 176 -22 201 -26 29 -78 40 -119
24z"/>
</g>
</svg>
